<?xml version="1.0" encoding="UTF-8"?>
<svg id="Layer_2" data-name="Layer 2" xmlns="http://www.w3.org/2000/svg" viewBox="0 0 350 54.1">
  <defs>
    <style>
      .cls-1 {
        fill: #fff;
      }

      .cls-2 {
        fill: #0a88b5;
      }
    </style>
  </defs>
  <g id="Layer_1-2" data-name="Layer 1">
    <rect class="cls-1" x="208.5" y="6.27" width="136.24" height="41.55"/>
    <g>
      <path class="cls-1" d="m110.66,11.13c-.98,0-1.81.22-2.49.66-.83,4.84-1.91,9.72-3.23,14.66-1.32,4.93-2.54,9.6-3.66,14h-.37c-.29-.88-.68-2.16-1.17-3.85-.49-1.68-1.08-3.6-1.76-5.75s-1.43-4.48-2.23-7c-.81-2.52-1.65-5.04-2.53-7.59-.44-1.27-1.56-1.91-3.37-1.91-1.22,0-2.27.25-3.15.73-.88,2.64-1.76,5.28-2.64,7.91s-1.68,5.09-2.42,7.36c-.73,2.27-1.38,4.29-1.94,6.04-.56,1.76-.99,3.08-1.28,3.96h-.29c-.25-.98-.62-2.49-1.13-4.54-.51-2.05-1.06-4.32-1.65-6.81-.59-2.49-1.17-5.04-1.76-7.66-.59-2.61-1.1-4.95-1.54-7-.25-1.12-.59-1.94-1.03-2.46-.44-.51-1.12-.77-2.05-.77-.73,0-1.36.15-1.87.44s-.94.61-1.28.95c.49,2.35,1.11,5.09,1.87,8.24.76,3.15,1.56,6.28,2.42,9.38.85,3.1,1.68,5.95,2.49,8.54.81,2.59,1.5,4.49,2.09,5.72.24.59.7,1.01,1.36,1.28s1.38.4,2.16.4c.83,0,1.49-.07,1.98-.22s.93-.34,1.32-.59c.59-1.47,1.22-3.15,1.91-5.06.68-1.91,1.39-3.93,2.13-6.08s1.45-4.4,2.16-6.74c.71-2.34,1.4-4.66,2.09-6.96.68,2.3,1.38,4.62,2.09,6.96.71,2.34,1.4,4.58,2.09,6.7.68,2.13,1.33,4.09,1.94,5.9.61,1.81,1.18,3.37,1.72,4.69.19.49.6.84,1.21,1.06.61.22,1.38.33,2.31.33.73,0,1.38-.09,1.94-.26.56-.17.96-.35,1.21-.55.44-.93.96-2.28,1.58-4.07.61-1.78,1.26-3.76,1.94-5.94.68-2.17,1.36-4.42,2.02-6.74.66-2.32,1.26-4.49,1.79-6.52.54-2.03.96-3.81,1.28-5.35.32-1.54.48-2.58.48-3.11,0-.83-.25-1.44-.73-1.83-.49-.39-1.15-.59-1.98-.59h0Z"/>
      <path class="cls-1" d="m148,15.67c-1.44-1.56-3.19-2.76-5.24-3.59-2.05-.83-4.32-1.24-6.81-1.24s-4.76.42-6.81,1.24c-2.05.83-3.81,2.03-5.28,3.59s-2.6,3.44-3.41,5.64c-.81,2.2-1.21,4.67-1.21,7.4s.39,5.2,1.17,7.4,1.91,4.08,3.37,5.64c1.47,1.56,3.23,2.76,5.28,3.59s4.35,1.25,6.89,1.25,4.84-.42,6.89-1.25c2.05-.83,3.8-2.03,5.24-3.59,1.44-1.56,2.55-3.44,3.33-5.64.78-2.2,1.17-4.66,1.17-7.4s-.4-5.2-1.21-7.4c-.81-2.2-1.93-4.08-3.37-5.64h0Zm-4.21,22.64c-1.86,2.3-4.47,3.44-7.84,3.44s-6-1.14-7.88-3.41c-1.88-2.27-2.82-5.48-2.82-9.64s.95-7.3,2.86-9.6c1.91-2.29,4.52-3.44,7.84-3.44s5.92,1.15,7.8,3.44c1.88,2.3,2.82,5.5,2.82,9.6s-.93,7.3-2.78,9.6h0Z"/>
      <path class="cls-1" d="m187.13,13.84c-2.57-2-6.07-3-10.52-3-2.64,0-5.01.32-7.11.95-2.1.63-3.79,1.34-5.06,2.13-1.03.63-1.75,1.28-2.16,1.94s-.62,1.5-.62,2.53v24.99c0,1.76,1.05,2.64,3.15,2.64.59,0,1.12-.06,1.61-.18.49-.12.85-.23,1.1-.33v-27.41c1.08-.63,2.37-1.2,3.88-1.68,1.51-.49,3.25-.73,5.2-.73,2.59,0,4.65.63,6.19,1.9,1.54,1.27,2.31,3.27,2.31,6.01v19.79c0,1.76,1.05,2.64,3.15,2.64.54,0,1.06-.06,1.58-.18.51-.12.89-.23,1.13-.33v-22.2c0-4.3-1.28-7.45-3.85-9.45h0Z"/>
      <path class="cls-2" d="m216.53,32.05c-1.22.9-1.83,2.23-1.83,3.99,0,1.86.71,3.29,2.13,4.29,1.42,1,3.57,1.5,6.45,1.5,2.05,0,3.75-.21,5.09-.62,1.34-.41,2.31-.82,2.89-1.21v-10.63l-9.09.95c-2.54.25-4.42.82-5.64,1.72h0Z"/>
      <path class="cls-2" d="m318.38,32.05c-1.22.9-1.83,2.23-1.83,3.99,0,1.86.71,3.29,2.13,4.29,1.42,1,3.57,1.5,6.45,1.5,2.05,0,3.75-.21,5.09-.62,1.34-.41,2.31-.82,2.89-1.21v-10.63l-9.09.95c-2.54.25-4.42.82-5.64,1.72h0Z"/>
      <path class="cls-2" d="m289.29,15.6c-2.98,0-5.45,1.04-7.4,3.11-1.96,2.08-2.98,5.04-3.08,8.9l20.15-2.78c-.25-2.69-1.18-4.9-2.82-6.63-1.64-1.73-3.92-2.6-6.85-2.6h0Z"/>
      <path class="cls-2" d="m343.39,0h-133.56c-3.65,0-6.61,2.96-6.61,6.61v40.89c0,3.65,2.96,6.61,6.61,6.61h133.56c3.65,0,6.61-2.96,6.61-6.61V6.61c0-3.65-2.96-6.61-6.61-6.61h0Zm-106.35,40.08c0,1.08-.21,1.89-.62,2.46-.42.56-1.04,1.09-1.87,1.58-1.17.68-2.72,1.28-4.65,1.79-1.93.51-4.14.77-6.63.77-4.59,0-8.15-.9-10.66-2.71-2.52-1.81-3.77-4.42-3.77-7.84,0-3.23,1.05-5.65,3.15-7.29,2.1-1.64,5.06-2.65,8.87-3.04l10.41-1.03v-2.05c0-2.44-.73-4.23-2.2-5.35-1.47-1.12-3.44-1.68-5.94-1.68-2.05,0-3.98.29-5.79.88-1.81.59-3.42,1.25-4.84,1.98-.39-.34-.75-.73-1.06-1.17-.32-.44-.48-.93-.48-1.47,0-.68.17-1.25.51-1.68.34-.44.88-.85,1.61-1.24,1.32-.68,2.83-1.21,4.54-1.58,1.71-.37,3.57-.55,5.57-.55,4.25,0,7.62.95,10.11,2.86,2.49,1.91,3.74,4.91,3.74,9.01v17.37h0Zm31.58-24.95c-.15.42-.34.77-.59,1.06-.49-.1-1.12-.19-1.91-.29-.78-.1-1.56-.15-2.34-.15-2.25,0-4.23.23-5.94.7-1.71.47-3.13,1.02-4.25,1.65v27.41c-.24.1-.61.21-1.1.33-.49.12-1.03.18-1.61.18-2.1,0-3.15-.88-3.15-2.64v-24.84c0-1.12.21-2.02.62-2.68.41-.66,1.11-1.31,2.09-1.94,1.27-.83,2.99-1.55,5.17-2.16,2.17-.61,4.63-.92,7.36-.92,3.91,0,5.86.98,5.86,2.93,0,.49-.07.94-.22,1.36h0Zm35.17,13.04c-.49.47-1.17.75-2.05.84l-22.57,3.15c1.32,6.4,5.52,9.6,12.6,9.6,2.05,0,3.91-.34,5.57-1.03,1.66-.68,2.98-1.42,3.96-2.2,1.17.68,1.76,1.61,1.76,2.78,0,.68-.31,1.34-.92,1.98-.61.63-1.44,1.2-2.49,1.68-1.05.49-2.27.88-3.66,1.17s-2.89.44-4.51.44c-5.67,0-10.15-1.54-13.45-4.62s-4.95-7.57-4.95-13.48c0-2.78.4-5.26,1.21-7.44.81-2.17,1.93-4.02,3.37-5.53,1.44-1.51,3.16-2.68,5.17-3.48,2-.81,4.18-1.21,6.52-1.21,2.2,0,4.23.37,6.08,1.1s3.45,1.77,4.8,3.11c1.34,1.34,2.39,2.93,3.15,4.76.76,1.83,1.14,3.85,1.14,6.04,0,1.08-.25,1.84-.73,2.31h0Zm35.1,11.91c0,1.08-.21,1.89-.62,2.46-.42.56-1.04,1.09-1.87,1.58-1.17.68-2.72,1.28-4.65,1.79-1.93.51-4.14.77-6.63.77-4.59,0-8.15-.9-10.66-2.71-2.52-1.81-3.77-4.42-3.77-7.84,0-3.23,1.05-5.65,3.15-7.29,2.1-1.64,5.06-2.65,8.87-3.04l10.41-1.03v-2.05c0-2.44-.73-4.23-2.2-5.35-1.47-1.12-3.44-1.68-5.94-1.68-2.05,0-3.98.29-5.79.88-1.81.59-3.42,1.25-4.84,1.98-.39-.34-.75-.73-1.06-1.17-.32-.44-.48-.93-.48-1.47,0-.68.17-1.25.51-1.68.34-.44.88-.85,1.61-1.24,1.32-.68,2.83-1.21,4.54-1.58,1.71-.37,3.57-.55,5.57-.55,4.25,0,7.62.95,10.11,2.86,2.49,1.91,3.74,4.91,3.74,9.01v17.37h0Z"/>
    </g>
    <path class="cls-2" d="m37.79,2.1h-10.18c0,4.82,3.91,8.72,8.72,8.72h0c.8,0,1.45.65,1.45,1.45v8.43h0c4.66,0,8.43-3.77,8.43-8.43v-7.25c0-1.61-1.31-2.92-2.92-2.92h-5.51Z"/>
    <path class="cls-2" d="m15.63,9.3c0-3.98-3.22-7.2-7.2-7.2H2.92C1.31,2.1,0,3.41,0,5.03v15.68H0c4.66,0,8.43-3.77,8.43-8.43v-1.78c0-.59.48-1.07,1.07-1.07h6.13v-.13h0Z"/>
    <g>
      <path class="cls-2" d="m37.79,38.44h0c0,.96-.78,1.74-1.74,1.74h-8.43c0,4.66,3.77,8.43,8.43,8.43h7.25c1.61,0,2.92-1.31,2.92-2.92v-15.68h0c-4.66,0-8.43,3.77-8.43,8.43h0Z"/>
      <path class="cls-2" d="m8.43,30.01h0c-4.66,0-8.43,3.77-8.43,8.43v7.25c0,1.61,1.31,2.92,2.92,2.92h15.68c0-4.66-3.77-8.43-8.43-8.43h0c-.96,0-1.74-.78-1.74-1.74v-8.43Z"/>
    </g>
  </g>
</svg>