<?xml version="1.0" encoding="UTF-8"?>
<svg id="Layer_2" data-name="Layer 2" xmlns="http://www.w3.org/2000/svg" viewBox="0 0 298.12 300">
  <defs>
    <style>
      .cls-1 {
        fill: #0a88b5;
      }
    </style>
  </defs>
  <g id="Layer_1-2" data-name="Layer 1">
    <path class="cls-1" d="m243.75,0h-65.63c0,31.07,25.19,56.25,56.25,56.25h0c5.17,0,9.37,4.2,9.37,9.37v54.37h0c30.03,0,54.37-24.35,54.37-54.37V18.84c0-10.4-8.43-18.84-18.84-18.84h-35.53Z"/>
    <path class="cls-1" d="m100.8,46.43C100.8,20.79,80.01,0,54.37,0H18.84C8.44,0,0,8.43,0,18.84v101.16H0c30.03,0,54.37-24.35,54.37-54.37v-11.48c0-3.8,3.08-6.89,6.89-6.89h39.53v-.83h0Z"/>
    <g>
      <path class="cls-1" d="m243.75,234.37h0c0,6.21-5.04,11.25-11.25,11.25h-54.37c0,30.03,24.35,54.37,54.37,54.37h46.79c10.4,0,18.84-8.43,18.84-18.84v-101.16h0c-30.03,0-54.37,24.35-54.37,54.37h0Z"/>
      <path class="cls-1" d="m54.37,180h0c-30.03,0-54.37,24.35-54.37,54.37v46.79c0,10.4,8.43,18.84,18.84,18.84h101.16c0-30.03-24.35-54.37-54.37-54.37h0c-6.21,0-11.25-5.04-11.25-11.25v-54.37Z"/>
    </g>
  </g>
</svg>